<?xml version="1.0" encoding="utf-8"?>
<!-- Generator: Adobe Illustrator 26.1.0, SVG Export Plug-In . SVG Version: 6.00 Build 0)  -->
<svg version="1.1" id="Glyph" xmlns="http://www.w3.org/2000/svg" xmlns:xlink="http://www.w3.org/1999/xlink" x="0px" y="0px"
	 viewBox="0 0 800 800" style="enable-background:new 0 0 800 800;" xml:space="preserve">
<style type="text/css">
	.st0{fill:#C0CAF5;}
</style>
<path id="XMLID_219_" class="st0" d="M794.7,414.6c-8.8,23.4-30.6,38.6-55.5,38.6h-20.3v292.3c0,14.7-11.9,26.6-26.6,26.6H532.9V586
	c0-73.3-59.6-132.9-132.9-132.9S267.1,512.7,267.1,586v186H107.7c-14.7,0-26.6-11.9-26.6-26.6V453.1H60.8c-25,0-46.7-15.1-55.5-38.6
	S2.9,365.4,21.7,349L332.1,55.1c38.1-36.1,97.8-36.1,135.8,0L779,349.6C797,365.3,803.5,391.1,794.7,414.6z"/>
</svg>
