<?xml version="1.0" encoding="utf-8"?>
<!-- Generator: Adobe Illustrator 26.1.0, SVG Export Plug-In . SVG Version: 6.00 Build 0)  -->
<svg version="1.1" id="Layer_1" xmlns="http://www.w3.org/2000/svg" xmlns:xlink="http://www.w3.org/1999/xlink" x="0px" y="0px"
	 viewBox="0 0 512 512" style="enable-background:new 0 0 512 512;" xml:space="preserve">
<style type="text/css">
	.st0{fill:#C0CAF5;}
</style>
<path class="st0" d="M479.4,117.7c-0.2-30.8-25.3-55.6-56.1-55.4c-16.8-0.1-33.3,1.3-49.6,4c0,13.3-8.6,24.8-21.3,28.7l-26.2,7.9
	l-7.9,26.2c-3.8,12.8-15.4,21.3-28.7,21.3c0,0,0,0,0,0c-13.3,0-24.8-8.6-28.7-21.3l-4.4-14.5c-23.1,16.3-44,36.1-61.7,58.9
	c-29.4,1-58.3,8.4-84.6,21.5c-46.8,24.7-75.8,73.6-75.3,126.5v18.5h101.8c35.7,0.2,64.6,29.1,64.8,64.8v101.8h18.5
	c52.9,0.6,101.7-28.5,126.5-75.3c13.2-26.3,20.5-55.2,21.5-84.6c70.7-54.8,111.9-139.5,111.2-229
	C479.4,117.8,479.4,117.8,479.4,117.7z M322,266c-25.6,0-46.3-20.7-46.3-46.3c0-25.6,20.7-46.3,46.3-46.3s46.3,20.7,46.3,46.3
	C368.2,245.3,347.5,266,322,266z"/>
<path class="st0" d="M148.3,393.4c21.5,21.8,21.5,56.8,0,78.6c-16.8,16.8-67.1,27.1-87.9,30.8l-26,4.6l4.6-26
	c3.7-20.9,14-71.1,30.8-87.9C91.7,372.4,126.3,372.4,148.3,393.4z"/>
<path class="st0" d="M299.1,9.3l9.4,31.4c1,3.2,3.5,5.7,6.7,6.7l31.4,9.4c9.4,2.8,9.4,16.2,0,19.1l-31.4,9.4c-3.2,1-5.7,3.5-6.7,6.7
	l-9.4,31.4c-2.8,9.4-16.2,9.4-19.1,0L270.6,92c-1-3.2-3.5-5.7-6.7-6.7l-31.4-9.4c-9.4-2.8-9.4-16.2,0-19.1l31.4-9.4
	c3.2-1,5.7-3.5,6.7-6.7L280,9.3C282.9-0.2,296.3-0.2,299.1,9.3z"/>
</svg>
